<?xml version="1.0" standalone="no"?>
<!DOCTYPE svg PUBLIC "-//W3C//DTD SVG 20010904//EN"
 "http://www.w3.org/TR/2001/REC-SVG-20010904/DTD/svg10.dtd">
<svg version="1.0" xmlns="http://www.w3.org/2000/svg"
 width="90" height="100" viewBox="0 0 192.000000 192.000000"
 preserveAspectRatio="xMidYMid meet">

<g transform="translate(0.000000,192.000000) scale(0.100000,-0.100000)"
fill="#000000" stroke="none">
<path d="M847 1572 c-54 -25 -58 -29 -55 -57 2 -21 8 -29 18 -26 43 10 140 12
155 3 15 -8 8 -11 -36 -17 -30 -3 -92 -13 -139 -20 -47 -7 -138 -22 -202 -31
l-118 -18 0 -31 c0 -28 6 -33 68 -62 37 -17 119 -56 183 -86 79 -37 121 -52
130 -46 21 13 29 11 29 -9 0 -12 23 -29 73 -54 66 -34 72 -35 75 -18 2 13 44
42 123 85 85 48 119 72 119 85 0 10 2 24 5 32 3 9 -17 22 -59 40 -62 25 -65
26 -68 7 -2 -13 -29 -34 -75 -60 l-73 -40 0 32 c0 28 -3 31 -22 25 -77 -23
-224 -24 -246 -1 -13 13 2 16 353 70 153 24 145 20 145 60 0 23 -5 35 -14 35
-7 0 -75 29 -150 65 -75 36 -142 65 -149 64 -6 -1 -38 -13 -70 -27z"/>
<path d="M1327 1139 c-118 -79 -167 -127 -167 -164 0 -31 32 -49 76 -42 l34 6
-20 -39 c-11 -22 -20 -48 -20 -58 0 -20 37 -42 70 -42 38 0 21 -103 -27 -167
-31 -43 -51 -43 -45 -1 5 36 -16 58 -58 58 -51 0 -103 -84 -98 -158 3 -40 8
-49 37 -69 68 -46 140 -23 232 74 115 120 171 300 113 364 -9 11 -23 19 -31
19 -7 0 -13 2 -13 4 0 3 25 55 55 117 30 62 55 117 55 124 0 18 -22 34 -56 41
-24 4 -47 -7 -137 -67z"/>
<path d="M475 1135 c-22 -8 -48 -25 -57 -36 -37 -44 -15 -140 48 -216 19 -24
22 -33 12 -33 -9 0 -27 -9 -42 -21 -32 -25 -34 -59 -5 -105 l21 -34 -26 -10
c-68 -25 4 -124 139 -191 105 -52 160 -60 212 -29 50 30 63 48 63 84 0 66 -45
111 -194 193 -98 54 -125 82 -56 58 59 -21 83 -19 140 10 57 29 73 52 68 101
-2 26 3 38 20 50 41 29 28 52 -50 90 -40 19 -91 48 -113 64 -49 37 -121 47
-180 25z m131 -91 c21 -31 33 -184 16 -184 -25 0 -44 51 -49 130 -6 86 3 101
33 54z m4 -450 c71 -37 105 -65 99 -83 -9 -24 -179 81 -179 110 0 14 7 12 80
-27z"/>
</g>
</svg>
